<svg width="7313" height="2369" viewBox="0 0 7313 2369" fill="none" xmlns="http://www.w3.org/2000/svg">
<path d="M7313 2369H0V0H7313V2369ZM3511.58 1317.28C3520.39 1276.51 3474.98 1251.03 3436.53 1274.66C3420.32 1284.38 3411.51 1298.28 3402.25 1329.79C3397.61 1346 3392.98 1351.56 3380.94 1356.66C3360.55 1365 3356.38 1375.65 3369.35 1385.85L3379.55 1394.18L3348.97 1478.97C3304.96 1602.2 3305.42 1600.35 3305.42 1611.47C3305.42 1624.9 3320.71 1633.24 3332.75 1626.76C3342.48 1621.66 3350.82 1601.28 3394.37 1475.26C3420.78 1398.35 3424.48 1390.48 3434.21 1390.48C3461.55 1390.48 3474.06 1366.39 3451.36 1358.05C3437.46 1352.95 3437.46 1350.64 3449.04 1323.76C3459.23 1299.21 3472.2 1295.04 3472.2 1316.35C3472.2 1343.69 3505.56 1344.61 3511.58 1317.28ZM4845.4 1356.19C4828.26 1339.05 4812.04 1349.71 4787.95 1392.79C4777.29 1411.79 4766.18 1428.93 4762.47 1430.78C4759.23 1433.1 4749.5 1443.76 4741.16 1455.34L4726.33 1475.72L4720.77 1457.19C4717.53 1446.54 4710.12 1429.39 4704.56 1418.74C4693.9 1400.21 4693.9 1399.28 4701.31 1385.84C4707.34 1375.65 4708.26 1370.09 4705.02 1363.14C4696.68 1347.86 4677.22 1344.15 4665.64 1355.73C4661.93 1359.44 4650.35 1377.97 4640.16 1396.96C4629.5 1415.96 4617.92 1432.64 4614.22 1434.03C4610.51 1435.42 4604.02 1443.29 4599.85 1451.63C4590.12 1471.55 4573.91 1483.6 4551.21 1486.38C4530.82 1489.16 4509.98 1478.97 4509.98 1465.53C4509.98 1458.58 4514.14 1457.19 4536.85 1457.66C4556.3 1457.66 4566.5 1455.34 4575.76 1448.39C4601.71 1428.93 4605.88 1394.65 4585.03 1371.48C4574.37 1359.44 4568.81 1357.12 4550.75 1357.12C4514.61 1357.12 4502.56 1366.85 4480.32 1415.03C4458.55 1461.82 4440.95 1480.82 4415 1485.92C4403.42 1487.77 4395.08 1486.38 4386.74 1480.82C4376.08 1473.87 4374.69 1470.63 4377.01 1454.88C4379.79 1432.17 4399.25 1391.87 4405.73 1395.11C4408.51 1396.5 4410.37 1404.38 4410.37 1412.72C4410.37 1432.17 4422.41 1440.51 4438.17 1432.17C4457.62 1421.52 4459.94 1388.16 4442.8 1370.56C4428.9 1356.66 4412.22 1352.95 4391.37 1358.51C4370.52 1364.53 4356.16 1383.06 4343.65 1421.05C4332.07 1454.87 4320.95 1470.63 4300.57 1481.28C4276.01 1493.79 4245.9 1484.06 4245.9 1463.21C4245.9 1451.63 4262.58 1405.3 4269.99 1396.5C4277.4 1387.24 4283.43 1394.65 4282.04 1411.79C4281.11 1427.54 4287.6 1436.34 4299.64 1436.81C4320.49 1437.27 4333 1392.33 4317.25 1372.87C4300.1 1352.02 4257.48 1352.02 4238.02 1372.87C4232.93 1378.9 4220.88 1402.06 4211.62 1424.76C4194.01 1468.31 4180.11 1487.77 4166.21 1487.77C4154.63 1487.77 4155.56 1483.14 4174.09 1430.78C4192.16 1380.29 4194.01 1365 4182.89 1358.97C4166.21 1349.71 4158.34 1358.05 4139.34 1407.62C4129.15 1434.02 4120.81 1457.19 4120.81 1458.58C4120.81 1464.6 4095.79 1487.77 4089.77 1487.77C4080.5 1487.77 4082.36 1475.26 4099.96 1427.54C4119.42 1374.73 4119.88 1365.92 4104.6 1358.97C4094.87 1354.34 4091.62 1354.8 4084.21 1362.22C4073.56 1372.87 4042.05 1465.99 4042.05 1486.38C4042.05 1515.57 4085.14 1531.32 4111.08 1511.4C4122.2 1502.59 4122.66 1503.06 4135.17 1511.86C4151.39 1524.37 4185.67 1521.59 4201.42 1506.76L4212.08 1497.04L4225.51 1507.23C4236.63 1516.03 4244.51 1517.88 4273.7 1517.88C4302.42 1517.88 4311.22 1516.03 4323.27 1507.23C4336.7 1497.96 4352.46 1497.5 4352.46 1506.3C4352.46 1512.79 4380.25 1520.2 4403.42 1520.2C4417.32 1520.2 4433.07 1516.03 4447.89 1508.62L4470.6 1497.04L4495.15 1509.08C4516 1519.74 4523.41 1521.13 4548.89 1519.27C4564.64 1517.88 4583.18 1513.25 4589.2 1509.54C4599.85 1502.13 4602.17 1502.59 4621.17 1511.86C4649.43 1526.22 4698.07 1525.76 4728.19 1511.4L4749.5 1501.2L4767.57 1511.86C4800 1530.85 4867.64 1522.98 4899.14 1496.11C4909.33 1487.77 4925.08 1464.14 4928.79 1452.56C4932.5 1439.59 4921.38 1427.54 4908.87 1430.78C4903.77 1432.17 4898.21 1436.81 4896.82 1441.44C4893.12 1452.56 4876.44 1473.87 4870.88 1473.87C4868.56 1473.87 4866.71 1468.77 4866.71 1462.29C4866.71 1455.8 4860.22 1437.73 4852.35 1422.91C4839.38 1397.43 4838.91 1394.65 4845.4 1387.7C4854.66 1378.43 4854.66 1365.46 4845.4 1356.19ZM3670.96 1356.2C3663.54 1339.52 3644.55 1334.42 3632.5 1346.47C3626.94 1352.03 3625.09 1361.29 3626.02 1378.43C3626.94 1399.28 3624.63 1407.16 3611.19 1428.93C3601 1446.07 3590.81 1456.73 3582.47 1459.51C3571.35 1463.22 3569.49 1462.75 3569.49 1455.8C3569.49 1451.63 3571.35 1446.07 3573.66 1443.76C3581.54 1434.95 3587.56 1408.08 3584.78 1395.11C3583.39 1387.24 3576.91 1376.12 3570.42 1369.63C3560.69 1359.9 3554.67 1358.05 3531.97 1358.05C3496.29 1358.05 3481.93 1370.09 3464.79 1414.57C3442.55 1473.41 3444.41 1498.89 3473.13 1513.71C3492.59 1523.91 3529.19 1520.2 3543.09 1506.76C3549.57 1501.21 3559.77 1497.04 3568.1 1497.04C3602.85 1497.04 3638.52 1468.31 3651.03 1431.25C3658.45 1408.08 3660.3 1406.69 3671.42 1413.64C3676.98 1417.35 3677.44 1420.59 3671.88 1437.73C3668.64 1448.85 3664.93 1466.46 3663.54 1477.11C3661.69 1493.33 3663.08 1498.43 3673.27 1508.15C3698.29 1533.64 3739.52 1519.27 3764.08 1477.58C3781.22 1447.46 3781.22 1430.32 3763.15 1428.47C3752.03 1427.08 3749.25 1429.86 3739.06 1449.78C3727.01 1473.87 3715.43 1487.77 3708.02 1487.77C3701.53 1487.77 3702.92 1475.72 3714.04 1444.68C3727.01 1406.23 3723.77 1393.26 3697.36 1380.29C3684.39 1374.26 3675.12 1365.46 3670.96 1356.2ZM2398.29 1279.29C2378.84 1274.19 2376.52 1274.19 2359.84 1278.83C2326.49 1289.02 2321.39 1297.36 2291.27 1382.6C2269.96 1444.22 2268.11 1464.61 2281.55 1486.84C2301.47 1519.27 2361.7 1530.39 2403.39 1509.55L2424.7 1498.43L2433.97 1507.69C2440.45 1514.64 2451.11 1517.88 2470.57 1519.27C2494.2 1521.13 2499.29 1519.74 2511.8 1509.08C2531.26 1492.87 2552.57 1492.87 2556.74 1508.62C2559.06 1517.42 2562.76 1520.2 2572.96 1520.2C2590.56 1520.2 2593.8 1515.57 2612.8 1461.83C2633.65 1403.92 2637.82 1396.04 2648.94 1392.33C2665.61 1387.24 2666.54 1396.97 2652.18 1438.2C2636.89 1483.14 2637.35 1496.57 2655.42 1510.94C2664.69 1517.88 2673.95 1519.74 2703.14 1519.27C2725.38 1519.27 2741.59 1516.96 2744.37 1513.71C2747.15 1510.93 2757.81 1483.6 2768.46 1453.49C2783.75 1410.86 2790.24 1397.89 2799.04 1393.72C2818.5 1384.92 2819.89 1395.11 2804.14 1439.59C2790.7 1477.11 2789.78 1482.67 2795.33 1495.65C2798.58 1503.99 2806.92 1512.33 2814.79 1515.57C2833.33 1523.44 2863.9 1518.81 2877.34 1505.84L2888.46 1495.65L2900.04 1506.3C2909.3 1514.64 2918.11 1517.42 2944.98 1518.81C2974.63 1520.66 2981.58 1519.74 3001.04 1509.08L3023.74 1497.04L3038.1 1507.23C3057.56 1521.13 3115.47 1522.52 3134.46 1509.55C3146.51 1501.67 3147.44 1501.67 3162.26 1510.47C3203.49 1535.95 3252.6 1512.79 3275.77 1457.66C3282.72 1440.52 3282.72 1439.12 3274.84 1433.57C3260.94 1423.37 3255.85 1426.62 3236.39 1459.05C3224.34 1479.43 3207.2 1489.62 3193.77 1485.45C3182.18 1481.75 3182.65 1473.87 3198.4 1429.86C3210.44 1395.11 3212.3 1392.8 3226.66 1390.48C3235 1389.09 3244.73 1383.99 3248.43 1378.43C3253.99 1369.63 3253.99 1367.32 3247.51 1360.83C3243.34 1356.66 3236.85 1353.42 3233.15 1353.42C3225.27 1353.42 3224.81 1355.27 3235.92 1323.3C3245.65 1294.58 3244.73 1282.07 3232.68 1277.44C3219.25 1272.34 3206.27 1286.7 3194.69 1319.13C3182.65 1353.42 3178.94 1358.05 3163.19 1358.05C3147.9 1358.05 3144.19 1376.12 3157.17 1386.77C3166.43 1394.19 3166.89 1396.5 3161.33 1412.25C3146.97 1457.19 3127.05 1479.9 3097.4 1485.92C3087.67 1487.77 3079.33 1486.38 3070.99 1480.82C3059.87 1473.87 3058.95 1470.63 3061.26 1453.49C3067.75 1407.16 3096.47 1368.24 3093.23 1410.86C3092.3 1424.76 3093.69 1428.47 3103.89 1433.1C3114.08 1437.74 3117.32 1437.27 3125.2 1429.4C3130.29 1424.3 3135.39 1412.72 3136.78 1403.45C3139.1 1390.02 3137.24 1384.46 3126.12 1372.41C3115.01 1359.44 3109.91 1357.12 3090.92 1357.12C3060.34 1356.66 3044.59 1372.41 3025.59 1423.37C3014.47 1453.95 3007.99 1464.14 2995.48 1472.48C2963.97 1493.79 2925.06 1490.09 2921.81 1465.53C2920.42 1455.34 2921.35 1454.88 2943.59 1458.12C2964.44 1460.9 2969.53 1459.51 2985.75 1448.85C3016.33 1428.93 3020.5 1391.87 2994.55 1367.78C2986.67 1360.37 2977.87 1358.05 2960.73 1358.05C2933.4 1358.05 2911.62 1370.56 2902.82 1392.33C2877.8 1451.63 2871.78 1463.68 2861.12 1474.8C2849.54 1488.23 2840.27 1491.01 2835.18 1483.6C2833.79 1481.29 2839.35 1459.97 2847.22 1436.81C2860.2 1399.75 2861.12 1393.26 2856.03 1380.75C2847.69 1361.29 2839.81 1358.51 2796.73 1358.98H2759.2L2740.2 1411.33C2722.14 1460.9 2704.53 1487.77 2690.63 1487.77C2679.98 1487.77 2680.44 1478.97 2693.88 1439.59C2710.55 1390.48 2711.02 1385.85 2696.19 1370.09C2686 1358.98 2681.83 1358.05 2658.2 1358.98C2643.38 1359.44 2629.01 1358.51 2625.77 1356.66C2616.5 1351.1 2603.07 1368.71 2589.63 1404.38C2576.2 1440.98 2564.62 1457.66 2549.79 1461.36C2539.14 1464.14 2538.67 1457.19 2548.4 1437.27C2552.57 1428.93 2555.81 1413.64 2555.81 1402.99C2555.35 1370.56 2529.87 1353.88 2487.71 1358.05C2469.64 1359.44 2447.87 1382.6 2435.82 1413.64C2419.61 1454.41 2408.49 1468.78 2386.25 1478.5C2355.21 1492.87 2318.61 1479.89 2318.61 1454.88C2318.61 1438.66 2354.74 1336.74 2363.55 1327.47C2367.25 1324.23 2374.2 1320.99 2379.3 1320.99C2386.71 1320.99 2388.1 1324.23 2388.1 1341.83C2388.1 1357.59 2390.42 1363.61 2397.37 1367.32C2416.36 1377.51 2434.43 1357.59 2434.43 1326.55C2434.43 1303.38 2421 1285.78 2398.29 1279.29ZM4046.68 1321.91C4046.68 1288.56 4004.52 1267.24 3966.54 1281.14C3945.22 1289.02 3936.88 1295.97 3928.08 1312.18C3914.65 1338.13 3918.82 1351.56 3954.49 1400.21C3982.29 1437.73 3984.6 1458.12 3964.68 1473.87C3954.95 1481.28 3947.54 1483.14 3936.42 1481.28C3915.57 1478.04 3907.7 1470.63 3907.7 1454.88C3907.7 1440.51 3893.8 1422.91 3882.68 1422.91C3872.49 1422.91 3861.37 1436.35 3861.37 1448.39C3861.37 1515.57 3951.25 1544.75 4003.13 1495.18C4036.49 1463.22 4035.57 1426.62 4001.28 1382.6C3970.24 1343.22 3966.53 1336.74 3972.56 1326.08C3979.97 1311.72 3996.65 1314.04 4008.69 1330.25C4024.45 1351.56 4046.68 1346.47 4046.68 1321.91ZM4811.11 1443.76C4806.94 1432.64 4806.95 1431.71 4812.97 1436.34C4816.67 1439.59 4821.31 1447.93 4822.7 1455.34C4826.87 1474.33 4818.53 1487.77 4801.85 1487.77C4794.44 1487.77 4787.02 1485.45 4785.63 1483.14C4784.24 1480.36 4787.02 1478.5 4792.12 1478.5C4806.94 1478.5 4817.14 1459.51 4811.11 1443.76ZM2485.86 1396.97C2492.34 1389.55 2511.34 1388.16 2515.51 1395.58C2521.53 1404.38 2513.19 1423.37 2501.61 1427.54C2486.78 1433.1 2478.91 1452.56 2485.86 1465.07C2489.1 1472.02 2489.1 1476.19 2484.93 1481.29C2477.52 1490.55 2463.16 1489.62 2460.38 1479.43C2457.6 1470.63 2477.05 1407.62 2485.86 1396.97ZM4665.64 1445.15C4663.32 1430.78 4663.32 1430.32 4669.81 1438.66C4673.52 1443.76 4677.22 1451.17 4677.22 1454.88C4678.15 1469.7 4675.83 1480.82 4670.27 1484.06C4662.4 1489.16 4639.7 1488.7 4639.7 1483.14C4639.7 1480.36 4642.48 1478.5 4645.72 1478.5C4658.69 1478.5 4668.88 1460.9 4665.64 1445.15ZM3515.29 1396.04C3520.85 1389.09 3539.84 1388.63 3544.01 1395.58C3550.04 1404.38 3541.7 1423.37 3529.65 1427.54C3516.22 1432.64 3508.34 1449.78 3514.36 1460.9C3521.31 1473.41 3519 1482.21 3508.8 1485.45C3502.78 1487.31 3496.29 1485.92 3492.12 1482.21C3486.57 1476.19 3487.03 1470.63 3498.15 1438.66C3505.1 1418.74 3512.51 1399.28 3515.29 1396.04ZM4531.29 1400.67C4541.94 1385.38 4556.3 1387.23 4556.3 1403.91C4556.3 1417.35 4549.82 1422.91 4532.68 1422.91C4522.02 1422.91 4521.56 1414.57 4531.29 1400.67ZM2938.49 1411.33C2942.2 1391.87 2963.05 1382.14 2969.07 1397.89C2973.7 1410.4 2963.51 1423.84 2949.61 1421.98C2939.88 1421.06 2937.57 1418.28 2938.49 1411.33ZM3089.73 745.044C3073.84 740.998 3029.04 739.554 3010.26 742.732C2994.37 745.044 2961.71 758.916 2948.71 768.452C2928.77 782.901 2911.14 808.91 2901.6 836.652C2894.09 858.326 2893.51 864.395 2893.22 902.541C2893.22 960.338 2902.18 990.392 2928.48 1018.42C2951.89 1043.57 2971.83 1053.39 3009.97 1058.59C3070.66 1066.97 3127.59 1044.72 3158.22 1001.08C3189.43 956.292 3196.08 866.996 3172.09 813.822C3156.78 780.011 3126.14 754.58 3089.73 745.044ZM5650.14 749.379C5623.27 740.998 5562.29 738.686 5539.17 745.044C5502.76 755.158 5472.42 781.457 5460.86 812.378C5455.65 825.671 5454.79 833.185 5455.65 850.813C5457.97 890.693 5472.99 907.454 5531.95 936.353C5573.85 956.87 5582.23 962.939 5582.23 973.343C5582.23 997.329 5533.1 992.704 5486 964.673C5472.99 956.87 5466.92 954.848 5463.75 956.871C5460.86 958.606 5457.1 971.899 5453.05 995.306C5443.81 1048.19 5441.21 1042.41 5478.77 1051.37C5516.34 1060.33 5562.29 1062.35 5588.01 1055.99C5624.71 1047.03 5655.34 1024.49 5669.21 996.462C5674.99 984.614 5676.15 977.677 5676.15 957.448C5676.15 913.234 5661.7 896.184 5597.26 864.106C5553.04 842.433 5544.66 835.208 5550.73 823.938C5558.82 808.91 5583.96 810.645 5622.11 828.851C5654.48 844.167 5655.05 843.877 5664.3 796.483C5668.64 775.099 5671.82 757.181 5671.24 756.604C5670.66 756.025 5661.41 752.846 5650.14 749.379ZM5147.31 783.19C5149.04 817.58 5149.62 1021.6 5148.17 1044.14L5147.31 1054.26L5194.7 1055.13L5242.09 1055.99L5239.78 986.348C5238.63 945.89 5238.92 916.991 5240.36 916.991C5241.81 916.991 5245.85 923.06 5249.61 930.573C5264.63 961.494 5319.25 1054.55 5324.17 1057.44C5329.66 1060.91 5368.09 1056.86 5405.95 1049.35C5420.69 1046.17 5425.02 1044.14 5425.6 1039.81C5425.89 1036.34 5414.33 1017.56 5395.55 992.127C5378.78 969.008 5356.53 937.22 5346.13 921.326L5327.06 892.427L5332.84 882.312C5336.02 876.821 5355.67 844.744 5376.47 810.934C5397.57 777.413 5414.62 749.093 5414.62 748.224C5414.62 747.357 5392.08 746.489 5364.62 746.489H5314.63L5308.56 760.649C5303.07 774.232 5249.61 862.951 5243.25 869.309C5241.52 871.041 5241.23 850.233 5242.38 809.199L5244.41 746.489H5145.28L5147.31 783.19ZM2862.01 753.425C2851.9 743.31 2773 737.819 2740.35 745.333C2685.15 757.759 2647.29 794.75 2632.56 851.102C2626.78 873.353 2626.2 929.128 2631.69 951.669C2644.4 1006.29 2679.08 1042.12 2730.23 1054.26C2752.49 1059.46 2814.91 1059.75 2833.98 1054.84C2848.72 1051.08 2848.14 1051.95 2853.34 1001.37C2856.52 972.187 2854.79 969.586 2835.71 974.499C2779.07 988.659 2745.26 976.81 2734.28 938.953C2728.5 919.302 2727.92 872.198 2732.83 853.125C2741.79 819.892 2777.92 810.066 2826.75 827.116C2836.29 830.584 2844.67 832.318 2846.12 830.873C2849.3 827.694 2864.03 755.448 2862.01 753.425ZM1933.5 803.419C1935.52 853.413 1935.81 992.705 1934.37 1038.36L1933.79 1054.26L1981.18 1055.12L2028.58 1055.99L2026.55 997.906L2024.24 940.109H2121.05L2119.03 997.906L2117.3 1055.7H2211.79L2211.5 959.472C2211.22 906.877 2211.79 837.52 2212.37 805.731L2213.24 747.934L2164.98 747.067L2116.72 746.489L2117.87 804.286L2119.03 862.083H2026.84L2028.58 804.286L2030.02 746.489H1931.48L1933.5 803.419ZM5060.32 744.177C5053.97 744.466 5041.83 745.044 5033.16 745.622C5024.49 745.911 5009.46 747.067 4999.92 747.934L4982.59 749.668L4983.45 830.584C4984.03 874.798 4983.45 911.21 4982.01 911.211C4980.56 911.211 4975.36 903.119 4970.45 893.005C4965.25 883.179 4953.98 861.505 4945.02 844.744C4936.06 827.983 4921.03 799.085 4911.21 780.301L4893.58 746.489H4786.94L4788.68 771.631C4790.99 806.02 4792.14 986.347 4790.41 1023.92L4788.97 1054.26L4832.02 1055.12L4874.79 1055.99L4872.77 973.343C4871.04 903.989 4871.33 890.982 4874.5 890.981C4876.82 890.981 4897.05 925.66 4921.9 973.343L4965.25 1055.7H5066.68L5066.97 940.688C5066.97 877.689 5068.13 807.465 5069.28 784.635L5071.3 743.6L5060.32 744.177ZM1639.02 779.723C1637.87 797.928 1637.58 814.978 1638.74 817.579C1640.18 821.625 1645.09 822.203 1676.01 821.336L1711.27 820.181V1055.7H1804.04L1803.75 937.798V820.181L1837.56 821.336L1871.37 822.203L1872.81 812.667C1873.68 807.176 1874.84 790.415 1875.13 775.388L1875.99 747.935L1758.38 747.067L1641.05 746.489L1639.02 779.723ZM2288.66 901.097L2289.24 1055.7H2503.67L2507.14 1021.6C2509.16 1002.82 2509.74 985.191 2508.87 982.879C2507.14 978.545 2500.2 978.255 2443.56 979.7L2380.27 981.435V937.22H2478.53L2478.82 927.683C2478.82 922.77 2479.97 907.454 2481.13 893.872C2482.57 880.29 2482.86 867.574 2482.28 865.84C2481.13 862.95 2468.12 862.083 2430.27 862.083H2379.41L2381.43 848.79C2382.29 841.276 2383.16 831.451 2383.16 826.538V817.868L2445 819.892L2506.85 821.914L2508.87 806.598C2509.74 798.217 2510.89 781.457 2511.18 769.608L2511.76 747.935L2399.92 747.067L2288.09 746.489L2288.66 901.097ZM3493.73 901.097L3494.31 1055.7H3539.68C3564.53 1055.7 3585.63 1054.84 3586.5 1053.39C3587.07 1052.23 3586.79 1029.41 3585.92 1002.53C3584.76 975.944 3584.47 952.826 3585.34 951.38C3586.21 949.935 3606.44 948.49 3630.13 948.201L3673.48 947.334L3675.79 914.679C3677.24 896.762 3677.53 880 3676.66 877.688C3675.5 874.51 3666.55 873.643 3630.13 873.643H3585.34V859.482C3585.34 851.969 3586.21 839.254 3587.36 831.74L3589.1 818.157L3643.14 820.181L3697.18 822.203L3700.07 787.814C3701.8 769.03 3702.38 751.98 3701.8 749.957C3700.65 747.356 3676.95 746.489 3596.9 746.489H3493.15L3493.73 901.097ZM3742.26 901.097L3742.84 1055.7H3850.63C3909.58 1055.7 3958.13 1054.84 3958.13 1053.39C3958.13 1052.24 3959.58 1036.63 3961.02 1018.42C3963.05 995.885 3963.04 984.614 3961.02 982.013C3958.71 979.123 3943.68 978.833 3896 979.989L3833.87 981.435V937.22H3932.12L3932.41 927.683C3932.41 922.77 3933.57 907.454 3934.72 893.872C3936.17 880.29 3936.46 867.574 3935.88 865.84C3934.72 862.95 3921.72 862.083 3883.86 862.083H3833L3835.02 846.767C3835.89 838.675 3836.76 828.562 3836.76 824.805V817.868L3898.6 819.892L3960.44 821.914L3962.47 803.708C3963.62 793.594 3964.49 777.121 3964.78 766.718L3965.36 747.935L3853.52 747.067L3741.97 746.489L3742.26 901.097ZM4019.69 901.097L4020.26 1055.7H4128.06C4187.01 1055.7 4235.56 1054.84 4235.56 1053.39C4235.56 1052.24 4237 1036.63 4238.45 1018.42C4240.47 995.885 4240.47 984.614 4238.45 982.013C4236.14 979.123 4221.11 978.833 4173.43 979.989L4111.29 981.435V937.22H4208.68L4211.57 903.119C4213.31 881.734 4213.31 867.863 4211.57 865.551C4209.55 862.95 4195.68 862.083 4159.55 862.083H4110.43L4112.45 848.79C4113.32 841.276 4114.18 831.451 4114.18 826.538V817.868L4176.03 819.892L4237.87 821.914L4240.18 799.373C4241.34 786.947 4242.49 770.186 4242.49 762.384L4242.78 747.935L4130.95 747.067L4019.4 746.489L4019.69 901.097ZM4378.32 901.097L4378.61 1055.7H4558.64L4560.38 1047.61C4561.24 1043.28 4562.69 1026.52 4563.85 1010.33C4566.16 973.054 4569.63 975.365 4507.49 975.076L4468.77 974.787L4470.79 860.639L4473.1 746.489H4377.74L4378.32 901.097ZM4615.29 901.097L4615.57 1055.7H4708.05L4708.63 901.097L4708.92 746.489H4615L4615.29 901.097ZM3245.21 856.882C3246.65 917.569 3246.65 986.636 3245.21 1010.33C3243.76 1039.81 3243.76 1053.97 3245.78 1054.84C3247.52 1055.41 3268.9 1055.41 3293.47 1055.13L3338.26 1054.26L3337.39 1018.14C3337.1 998.196 3335.95 974.499 3335.08 965.251L3333.35 948.779H3378.43C3431.02 948.779 3425.82 953.403 3426.98 905.432L3427.84 875.088L3382.18 874.221L3336.52 873.354L3337.39 846.768L3338.26 820.181L3448.65 821.915L3451.54 787.814C3453.27 769.03 3453.85 751.98 3453.27 749.957C3452.12 747.356 3428.13 746.489 3347.22 746.489H3242.89L3245.21 856.882ZM3020.66 818.735C3032.51 814.979 3056.5 817.58 3065.17 823.938C3080.48 835.208 3083.66 847.635 3084.82 900.229C3086.55 972.186 3080.19 986.636 3046.96 988.659C3021.24 990.393 3009.97 984.902 3001.3 967.273C2995.23 954.847 2994.37 947.911 2993.5 908.609C2991.77 844.166 2997.26 826.249 3020.66 818.735Z" fill="#FDE7B6"/>
</svg>
